<defs>
<font horiz-adv-x="646" ><font-face
    font-family="neors---"
    units-per-em="1000"
    panose-1="0 0 4 0 0 0 0 0 0 0"
    ascent="872"
    descent="-235"
    alphabetic="0" />
<missing-glyph horiz-adv-x="500" d="M63 0V765H438V0H63ZM125 63H375V703H125V63Z" />
<glyph unicode=" " glyph-name="space" horiz-adv-x="400" />
<glyph unicode="!" glyph-name="exclam" horiz-adv-x="306" d="M251 574Q240 519 238 441Q237 374 237 307Q235 202 222 135Q211 128 211 121Q211 114 221 106T245 76Q249 64 249 46Q249 17 234 2Q210 -22 177 -22Q151 -22 109 5T58 54T48 106Q48 134 68 149T92
173Q61 197 61 256Q61 268 62 291T64 325Q64 338 59 366T54 458Q54 482 55 530T57 603Q57 643 53 676Q79 692 123 692Q176 692 193 679Q195 678 228 650Q231 647 237 644Q260 630 260 620Q260 612 256 597T251 574Z" />
<glyph unicode="$" glyph-name="dollar" horiz-adv-x="792" d="M708 115Q705 109 698 97Q692 89 673 74Q605 21 521 8Q518 4 498 -5Q483 -12 483 -21Q483 -25 485 -29T488 -36Q488 -39 479 -48Q477 -48 473 -48Q469 -47 467 -47Q454 -47 428 -50T389 -54Q359 -54
345 -43Q341 -39 331 -30Q327 -25 314 -15Q297 -2 257 14T200 44Q136 96 61 163Q61 168 55 176Q51 180 51 184Q51 187 52 189L122 253Q224 168 308 156Q317 179 318 218Q319 274 320 282Q305 290 256 306Q215 319 195 336Q137 353 99 432Q93 444 93 461Q93 565
127 609Q154 644 216 667Q268 682 320 698Q320 703 321 713T323 729Q323 737 319 741L326 751Q333 750 346 750Q353 750 366 751Q380 751 386 751Q432 751 448 720H452Q464 720 471 701T495 684Q575 661 702 558Q699 556 672 512Q653 481 632 481Q630 481 623 483Q620
482 614 482Q592 482 561 514T510 546Q495 546 482 536L481 527Q481 516 486 494T491 459Q491 445 487 436L498 426Q564 422 621 388T713 297Q736 259 736 222Q736 174 708 115ZM433 708H432L434 700Q434 700 442 700Q445 701 445 703Q440 708 433 708ZM478 566H470Q476
556 493 556Q498 556 506 558Q494 566 478 566ZM279 497Q270 466 270 455Q270 446 271 442Q285 434 301 434Q310 434 314 436L316 522Q291 513 279 497ZM564 269Q557 286 535 286Q525 286 509 282Q490 278 482 278V167Q526 173 545 192T564 255V269Z" />
<glyph unicode="&amp;" glyph-name="ampersand" horiz-adv-x="843" d="M724 -18Q645 -18 582 27H577Q564 27 540 16T501 6Q415 -15 376 -15Q256 -15 159 48Q147 56 124 74Q121 77 103 99Q46 169 46 220Q46 278 94 330Q135 375 195 398Q195 416 177 449T159 502Q159
508 160 513Q177 604 230 616Q294 665 377 665Q415 665 451 651Q468 643 516 616Q538 603 563 595Q589 566 627 538Q626 525 616 512T597 485Q594 479 589 468Q576 441 550 441Q533 441 493 457T424 474Q405 474 383 465T339 447V442Q339 442 431 344Q486 285 534
259Q573 298 595 331Q686 297 734 242Q752 238 752 222Q752 212 723 176Q703 153 684 130Q701 117 746 67Q756 58 774 39Q784 27 793 15Q772 -18 724 -18ZM343 256Q304 244 265 231Q223 212 219 171Q232 158 268 146Q301 135 322 135Q377 135 424 171L343 256Z"
/>
<glyph unicode="(" glyph-name="parenleft" horiz-adv-x="360" d="M307 640Q307 623 309 589T311 536Q311 393 236 328Q308 247 308 159Q308 145 303 120T297 82Q297 73 299 54T301 25Q301 20 299 10T296 -5Q296 -20 322 -29Q328 -40 361 -63Q389 -82 389 -100Q389
-113 377 -129Q357 -131 349 -131Q241 -131 144 -11Q115 25 115 74Q115 99 124 148T134 222Q134 273 109 304Q101 314 68 324Q41 332 41 351Q41 359 44 366Q47 369 51 388Q54 403 65 404Q68 403 76 403Q104 403 122 431Q137 456 137 486Q137 509 125 553T113 620Q113
634 120 660Q141 739 196 781Q213 794 227 799Q262 811 301 811Q336 811 351 784L389 755Q391 743 391 739Q391 712 349 692T307 640Z" />
<glyph unicode=")" glyph-name="parenright" horiz-adv-x="365" d="M301 289Q259 265 242 199Q238 183 238 178Q238 159 241 121T244 63Q244 -50 166 -94Q93 -135 49 -135Q46 -135 42 -135Q38 -134 37 -134T-13 -103Q-41 -85 -41 -55Q-41 -31 1 -13T50 28Q54 42
54 80Q54 96 54 128Q53 160 53 175Q53 308 119 358Q112 379 76 418Q48 448 48 500Q48 522 53 566T58 633Q58 710 6 743Q1 746 -6 746H-18Q-33 746 -34 758V765Q-34 769 -35 778Q-35 786 -35 790Q-35 809 -23 815Q56 794 73 787Q125 766 152 729Q192 722 222 663Q225
656 230 643T235 604Q235 571 230 507T225 411Q225 389 253 372Q277 360 300 347Q314 337 314 323Q314 308 301 289Z" />
<glyph unicode="," glyph-name="comma" horiz-adv-x="313" d="M161 -164Q129 -165 98 -144Q90 -139 49 -100Q51 -81 79 -60T108 -21V-15Q81 -8 65 15T49 68Q49 95 70 118Q94 145 115 145Q136 145 167 127Q190 113 214 98Q256 46 256 -6Q256 -38 219 -89Q190 -126
161 -164Z" />
<glyph unicode="-" glyph-name="hyphen" horiz-adv-x="650" d="M582 224Q554 225 497 225Q441 225 328 220T157 215H135Q108 237 47 272Q44 296 44 320Q44 350 51 367Q139 362 291 361Q464 360 532 357Q555 342 597 308Q596 303 596 294Q596 289 597 277T598 259Q598
234 582 224Z" />
<glyph unicode="." glyph-name="period" horiz-adv-x="305" d="M210 5Q199 -1 181 -1Q159 -1 151 -3Q140 4 119 20Q50 73 50 116Q50 130 54 141Q71 160 102 183Q109 185 124 185Q159 185 193 164T246 111Q255 96 255 73Q255 27 210 5Z" />
<glyph unicode="/" glyph-name="slash" horiz-adv-x="679" d="M272 15Q258 -13 223 -62L124 -65Q102 -50 80 -36Q55 -17 45 3Q126 137 225 326Q244 362 281 435Q289 452 306 486Q322 509 352 555Q383 609 451 713Q486 718 515 718Q588 718 628 674V662Q400 235 272 15Z" />
<glyph unicode="0" glyph-name="zero" horiz-adv-x="851" d="M799 310Q799 182 685 72Q670 58 639 34Q572 -4 451 -4Q307 -4 231 55Q220 65 195 86Q141 131 129 143Q95 177 78 214Q53 268 53 340Q53 548 245 630Q256 635 278 643Q318 655 406 655Q490 655 569
628Q583 623 633 590Q799 480 799 310ZM635 349Q635 392 593 472L572 485Q446 499 438 499Q305 499 247 373Q224 323 224 291Q224 255 242 205Q277 190 313 174T387 158Q402 158 482 179Q493 182 516 187Q563 199 599 249T635 349Z" />
<glyph unicode="1" glyph-name="one" horiz-adv-x="452" d="M389 101Q389 90 392 69T395 37Q395 18 386 1Q382 2 375 2Q364 2 341 -1T306 -5Q278 -5 255 17Q236 39 217 61Q220 88 220 141Q220 173 218 235T216 329Q216 338 217 355Q217 373 217 381L212 386Q203
378 192 358T174 331Q152 335 109 343Q71 350 53 375Q52 381 47 386L44 389Q37 396 37 403Q37 428 215 643Q223 644 253 648Q276 651 290 651Q323 651 344 635L346 633Q348 632 349 630T385 608Q389 606 395 602Q398 527 398 452Q398 394 394 277T389 101Z" />
<glyph unicode="2" glyph-name="two" horiz-adv-x="724" d="M657 6Q651 6 148 -3Q116 16 85 35Q49 61 49 94Q49 208 170 309Q185 322 218 345Q236 355 287 373Q361 399 388 411Q442 436 476 471V475Q476 488 453 509Q427 511 415 511Q361 511 295 489Q273 482
180 445Q126 469 122 472Q91 492 93 523Q74 557 74 574Q112 606 194 639Q241 640 289 663H342Q452 663 506 630Q514 624 530 612Q541 607 563 595Q609 570 628 547Q654 517 654 472Q654 406 616 369Q613 366 592 350Q568 332 557 325Q540 314 519 306Q449 287 379
269Q302 245 266 183Q263 178 263 173Q263 165 271 160L612 157L672 116V15L657 6Z" />
<glyph unicode="3" glyph-name="three" horiz-adv-x="796" d="M654 45T583 23Q535 9 443 5Q435 5 400 3Q374 1 357 1Q294 1 226 26T108 92Q103 96 94 104Q78 112 61 121T43 149Q56 160 74 194Q90 225 108 235Q258 166 381 166Q421 166 465 176Q518 187 543 206Q557
217 560 237Q527 265 475 274Q445 280 381 281Q371 293 351 308Q323 327 319 331L322 420Q397 421 429 427Q488 439 522 475Q523 477 523 480Q523 505 496 514Q473 522 401 522Q293 522 237 463Q223 465 201 479T166 495Q144 517 117 584Q117 608 142 620Q165 629
187 637Q278 680 365 680Q484 680 589 622Q631 599 632 593Q633 592 637 589Q638 588 647 583Q723 542 723 463Q723 399 664 338Q672 326 702 304Q727 284 734 266Q735 264 736 262T737 258Q737 253 738 249Q742 205 742 214Q742 157 698 101Z" />
<glyph unicode="4" glyph-name="four" horiz-adv-x="762" d="M701 166Q701 163 703 153Q688 138 665 138Q656 138 638 141T610 144Q589 144 576 130Q576 124 578 100Q580 80 580 69Q580 0 527 0Q520 0 497 3Q478 6 467 4Q403 49 403 108Q403 114 405 126L397 136Q361
136 290 139T183 142Q174 142 156 142Q138 141 129 141Q121 141 65 182Q53 191 46 195V204Q90 254 414 639Q426 637 430 637Q444 637 469 643T508 649Q540 649 551 616L574 601Q583 589 583 569Q583 515 576 328Q584 307 607 307Q613 307 625 308T643 310Q673 310
679 278Q710 266 710 234Q710 223 706 201T701 166ZM403 359Q377 335 362 310Q364 309 369 309Q387 309 405 322Q409 336 409 343Q409 354 403 359Z" />
<glyph unicode="5" glyph-name="five" horiz-adv-x="790" d="M702 130Q603 2 426 2Q245 2 46 151Q56 163 71 193T99 236Q282 162 381 162Q469 162 525 201Q563 227 563 249Q563 257 558 265Q558 279 535 294Q475 303 412 303Q275 303 176 256Q132 271 122 276Q93
290 79 313Q86 371 85 477Q84 592 88 641L97 652Q162 657 253 657Q297 657 383 656T513 654Q590 654 629 656Q654 640 698 601L694 500Q673 501 632 501Q589 501 501 498T369 494Q321 494 273 497Q261 491 261 465L271 457Q379 460 379 460Q575 460 666 375Q694
348 704 322Q729 254 729 211Q729 165 702 130Z" />
<glyph unicode="6" glyph-name="six" horiz-adv-x="820" d="M755 130T737 107Q693 51 610 24Q554 5 458 -4Q438 -6 418 -6Q233 -6 100 170Q47 240 47 338Q47 418 82 499Q86 510 96 529Q98 531 121 550Q200 614 311 655Q314 656 340 665Q549 665 650 591Q656 587
697 550Q711 540 735 517Q734 497 719 474Q705 456 691 437Q670 437 636 462Q631 466 620 473Q569 497 487 497Q381 497 307 444L311 438Q355 449 408 449Q493 449 594 417Q769 362 769 217Q769 170 762 150ZM537 270Q523 272 517 273Q482 263 414 262Q352 261
311 240Q304 236 292 233Q286 232 272 228Q249 219 244 203Q286 160 359 160Q398 160 491 180Q504 182 529 188Q545 194 559 208T574 236Q574 265 537 270Z" />
<glyph unicode="7" glyph-name="seven" horiz-adv-x="688" d="M626 557Q595 503 535 394Q475 279 347 51V42Q347 6 305 -1Q270 -3 235 -5Q232 -6 227 -6Q200 -6 172 22Q150 47 129 72Q170 148 219 230Q229 248 250 282Q255 289 264 304Q266 309 270 320Q279 343
307 396Q332 443 341 472L332 477H138Q120 485 97 503Q77 518 58 533Q58 543 56 563T54 593Q54 625 71 640Q151 643 231 643H346Q559 643 559 643L626 596Q635 590 635 581Q635 574 626 557Z" />
<glyph unicode="8" glyph-name="eight" horiz-adv-x="805" d="M748 153Q744 142 729 122Q687 64 604 32Q530 2 451 2Q404 2 341 13Q287 23 233 33Q179 68 126 103Q60 151 50 200Q48 210 48 236Q48 315 92 358Q115 374 144 402Q144 402 138 414Q116 443 107 461T97
515Q97 550 102 562T122 592Q163 640 288 662Q327 669 330 669Q340 669 398 666Q487 661 535 649Q608 630 654 583H653Q685 574 705 534Q722 500 722 463Q722 392 671 347Q670 333 688 322T707 309T712 303Q754 269 754 205Q754 169 748 153ZM533 500Q506 507 450
517Q433 519 411 519Q343 519 298 510Q297 509 275 489Q259 476 257 465Q327 438 404 438Q534 438 534 490Q534 497 533 500ZM567 254Q478 281 404 281Q345 281 293 263Q223 239 221 192Q307 169 393 169Q487 169 565 196Q566 198 577 242L567 254Z" />
<glyph unicode="9" glyph-name="nine" horiz-adv-x="821" d="M756 204Q751 194 735 170Q660 58 564 22Q483 -8 389 -8Q189 -8 64 113L63 117Q62 141 82 169Q113 214 114 216Q141 215 176 199Q206 186 235 172Q280 155 335 155Q438 155 522 210Q522 211 519 217L517
219Q478 215 428 215Q305 215 225 253Q205 263 191 272Q186 276 175 283Q167 287 149 293Q83 324 64 369Q48 407 48 464Q48 561 155 617Q241 662 348 662Q493 662 596 590Q618 574 662 543Q689 524 693 521Q707 509 719 494Q770 428 770 321Q770 243 756 204ZM549
469Q476 500 399 500Q277 500 224 421Q220 417 220 413Q220 398 285 388Q331 381 364 381Q491 381 569 445L549 469Z" />
<glyph unicode=":" glyph-name="colon" horiz-adv-x="305" d="M210 315Q199 309 181 309Q159 309 151 307Q140 314 119 330Q50 383 50 426Q50 440 54 451Q71 470 102 493Q109 495 124 495Q159 495 193 474T246 421Q255 406 255 383Q255 337 210 315ZM250 45Q244
39 234 17Q227 2 208 -2T183 -6Q155 -6 122 20Q78 54 66 59Q50 84 50 117Q50 133 54 146Q92 180 122 180Q148 180 182 154Q222 122 237 117Q252 99 252 71Q252 63 250 45Z" />
<glyph unicode=";" glyph-name="semicolon" horiz-adv-x="313" d="M168 283Q121 283 49 355Q46 373 46 389Q46 470 127 470Q158 470 176 454Q182 448 193 436Q209 421 225 404T250 370V368Q250 333 227 308T168 283ZM161 -164Q129 -165 98 -144Q90 -139 49 -100Q51
-81 79 -60T108 -21V-15Q81 -8 65 15T49 68Q49 95 70 118Q94 145 115 145Q136 145 167 127Q190 113 214 98Q256 46 256 -6Q256 -38 219 -89Q190 -126 161 -164Z" />
<glyph unicode="&lt;" glyph-name="less" horiz-adv-x="1189" d="M1099 73Q1057 15 964 3Q934 12 897 44Q838 94 836 96Q823 125 823 153Q823 190 836 209Q845 222 865 231T902 240Q924 240 953 208T1006 176H1008Q1014 183 1014 195Q1014 208 1010 217Q1005 222
990 258Q979 283 958 287Q951 288 938 290Q890 299 891 299Q883 299 864 291Q821 273 798 257Q790 251 727 199Q684 164 650 150Q623 120 528 51Q514 40 484 20Q451 2 377 2Q338 2 317 5Q254 14 137 99Q126 107 105 123Q98 129 88 144Q44 209 44 299Q44 317 48
353Q85 403 104 420Q141 455 180 455Q190 455 211 450Q246 441 264 430T308 391Q329 372 350 353Q374 330 374 305Q374 251 335 226H331Q321 226 306 218T282 209Q274 209 267 214T245 229Q227 240 190 264Q178 251 178 229Q178 211 185 188Q221 149 289 149Q350
149 391 165Q459 192 555 295Q568 311 596 342Q641 388 710 416T845 444Q925 444 969 418Q981 410 1004 393Q1039 369 1055 357Q1084 335 1100 316Q1138 271 1138 199Q1138 126 1099 73Z" />
<glyph unicode="&gt;" glyph-name="greater" horiz-adv-x="1208" d="M1148 205Q1134 136 1113 97Q1084 45 1034 21T927 -4Q835 -4 731 55Q721 60 703 73Q698 77 690 89Q672 109 647 129Q592 166 491 249Q485 256 473 268Q441 293 379 293Q323 293 275 272L260
256Q286 245 319 206T375 155Q380 140 380 127Q380 86 340 32Q331 20 306 9T264 -2Q259 -2 239 3Q50 49 50 201Q50 266 83 334Q120 409 175 432Q187 437 207 442Q299 465 356 465Q440 465 491 427Q498 421 512 409Q531 395 567 366Q608 329 689 254Q717 227 746
199Q781 169 816 168Q845 156 876 156Q904 156 940 165Q986 177 986 196V199Q959 199 923 229Q884 260 862 264Q820 306 820 344Q820 369 843 394Q897 453 968 453Q989 453 1010 447Q1099 376 1106 368Q1157 316 1157 258Q1157 248 1148 205Z" />
<glyph unicode="?" glyph-name="question" horiz-adv-x="585" d="M333 255T333 152Q333 143 321 136T308 120Q326 109 354 79Q350 37 343 19Q331 -10 301 -25Q285 -33 272 -33Q241 -33 216 -8Q206 2 195 13T171 28Q141 62 141 90Q141 117 158 130Q175 147 175
149Q175 155 160 164Q160 171 156 183T152 203Q152 212 156 217Q156 252 160 280Q168 345 189 361Q203 370 232 389Q288 432 339 499H338Q342 517 342 527Q342 544 332 551Q325 552 310 552Q278 552 225 539Q165 524 141 522Q134 530 101 550Q73 566 68 581Q66
586 63 597Q57 610 51 624T44 651V655Q89 729 212 729Q228 729 283 726Q327 724 354 726L383 714Q447 688 489 637Q535 582 535 517Q535 389 434 322Z" />
<glyph unicode="A" glyph-name="A" horiz-adv-x="713" d="M713 0Q705 2 689 2Q678 2 656 0T623 -2Q577 -2 554 35Q541 56 517 113Q496 163 476 188H273Q253 171 232 132Q215 100 199 68Q155 -13 99 -13Q63 -13 40 4Q22 18 1 52Q36 144 110 280Q208 460 229 503Q248
539 266 576Q288 618 297 651Q317 657 337 657Q368 657 382 653Q392 650 404 637T423 621T448 609Q470 596 487 563Q500 534 513 506Q517 498 530 476Q576 399 649 208Q673 151 718 36Q721 28 721 18Q721 7 713 0ZM374 413Q340 372 340 348Q346 347 365 343Q380
340 390 340Q396 340 406 342Q405 357 391 380T374 413Z" />
<glyph unicode="B" glyph-name="B" horiz-adv-x="716" d="M615 60Q580 21 523 8Q485 -1 415 -2Q311 -4 102 -8Q83 9 65 25Q42 48 42 66Q42 84 44 113Q48 151 48 160Q53 259 53 363Q53 448 50 496Q50 502 47 526Q45 545 45 557Q45 556 48 643L58 651Q113 646 355
646Q402 646 419 643Q426 641 442 637Q470 630 498 624Q532 615 550 603Q556 599 596 568Q626 545 636 513Q649 472 649 439Q649 404 636 376Q633 370 616 352T598 323Q598 325 599 318Q667 281 667 190Q667 87 615 60ZM464 502H444Q417 502 363 506T280 510Q241
510 212 505Q207 491 207 463Q207 415 207 415Q237 408 312 408Q319 408 376 413Q415 416 430 421Q460 431 472 455Q475 482 475 482Q475 498 464 502ZM496 250L212 253Q201 222 201 174V149Q212 144 229 144Q237 144 252 145T274 147Q287 147 298 143Q354 146
410 149Q477 158 507 197Q509 209 509 217Q509 241 496 250Z" />
<glyph unicode="C" glyph-name="C" horiz-adv-x="794" d="M87 203Q86 203 86 204Q86 204 85 204V205L80 213Q54 255 54 342Q54 420 107 511Q114 524 130 548Q138 558 170 583Q277 666 407 666Q467 666 550 637Q645 605 670 563Q676 552 713 530Q741 512 742 486L681
421Q648 423 598 468Q551 510 514 508L493 507Q365 501 300 461Q215 409 215 293Q215 249 238 195Q252 162 285 152T351 134Q436 137 480 147Q551 163 594 205Q601 206 617 214Q630 222 640 221L644 220Q734 181 746 115Q642 9 543 -10Q542 -10 499 -14T444 -18Q262
-18 141 124Q132 136 111 167L94 192Q90 198 87 203Z" />
<glyph unicode="D" glyph-name="D" horiz-adv-x="753" d="M682 179Q675 169 663 148Q638 106 624 88Q599 58 569 43Q555 28 528 17Q505 8 482 -1Q459 -3 137 -11Q93 11 87 15Q59 33 50 56Q54 112 54 181Q54 239 50 353T46 525Q46 592 50 647Q54 653 65 653T79
655Q165 655 396 644Q437 642 479 623Q488 619 554 582Q566 576 588 563Q609 546 634 510T670 446Q675 429 689 395T704 308Q704 225 682 179ZM520 440Q497 489 423 501Q423 501 390 502Q320 504 318 504Q259 504 212 496Q209 409 209 324Q209 239 212 153Q329
150 328 150Q387 150 415 155Q477 166 511 219Q541 266 541 332Q541 396 520 440Z" />
<glyph unicode="E" glyph-name="E" horiz-adv-x="699" d="M638 8Q618 -2 587 -2Q575 -2 551 0T514 2Q511 2 504 1T492 0Q478 0 451 2T410 4Q374 4 302 1T194 -3Q155 -3 114 0Q92 16 52 52Q50 98 50 120Q50 165 54 253T58 386Q58 493 54 555Q49 633 49 620Q49 627
54 657Q313 648 396 648Q501 648 576 653Q584 650 597 637T622 621V518Q550 510 433 510Q407 510 353 511Q300 511 273 511Q265 511 248 511Q231 510 222 510Q211 483 211 462Q211 445 219 431Q224 431 294 427Q338 425 367 417Q373 402 389 392T421 371L423 277L409
266Q401 267 384 267Q366 267 330 266T274 264Q240 264 224 266L216 258Q217 253 217 242Q217 233 216 216T214 189Q214 168 222 155H249Q290 155 371 151T493 146Q534 146 555 148Q587 151 589 151Q610 151 649 87Q649 74 644 48T638 8Z" />
<glyph unicode="F" glyph-name="F" horiz-adv-x="673" d="M619 555T619 550Q619 547 620 540Q620 533 620 529Q620 505 589 505Q587 505 581 506Q576 506 573 506Q571 506 483 505Q425 504 308 503Q222 502 224 501L223 502H222Q220 502 212 494Q212 489 212 478Q211
467 211 461Q211 438 217 417Q236 419 272 419Q299 419 345 417Q398 414 418 414Q433 404 460 379Q462 355 462 345Q462 337 461 305Q460 280 461 265Q434 261 402 261Q387 261 359 262T316 263Q255 263 217 246Q220 212 220 175Q220 119 212 5Q192 -9 160 -9Q112
-9 112 -9Q69 4 57 45Q52 62 52 125Q52 132 51 145T50 166Q50 163 54 218Q57 259 57 330Q57 378 55 472T52 613V638L60 647Q108 649 131 649Q190 649 307 645T484 640Q510 640 566 642Q570 637 582 627Q590 622 601 613Q624 595 624 577Q624 571 622 563Z" />
<glyph unicode="G" glyph-name="G" horiz-adv-x="766" d="M701 152Q700 136 694 105Q690 90 674 68Q641 22 566 2Q562 1 438 -20Q408 -25 392 -25Q322 -25 245 22Q229 32 118 114Q108 129 76 195Q70 207 59 230Q45 269 45 347Q45 463 97 520Q106 530 138 557Q262
662 390 662Q456 662 517 634Q563 613 627 564Q642 551 675 528Q699 511 699 502Q699 491 678 471T653 436Q649 429 639 429Q632 429 623 433Q619 435 586 459Q507 517 448 517Q410 517 364 499Q325 482 285 465Q197 367 197 281Q197 209 247 169Q293 133 368 133Q375
133 387 135T405 137Q475 143 485 145Q531 156 547 192Q556 212 556 225Q556 231 553 235H414Q382 249 352 293Q349 307 349 319Q349 338 357 378H373Q392 378 429 375T484 372Q510 372 560 375T636 378H659Q668 373 684 354T713 330Q714 318 714 294Q714 243 701
152Z" />
<glyph unicode="H" glyph-name="H" horiz-adv-x="725" d="M657 7L647 -3Q635 0 623 0Q616 0 602 -1T580 -2Q543 -2 533 26Q517 31 506 51V254L499 260Q470 256 433 256Q412 256 370 257T305 259Q259 259 225 254L218 246Q217 237 210 148Q205 88 205 49Q205 42
206 30Q206 17 206 11Q203 0 196 -7Q178 -9 168 -9Q90 -9 50 56Q47 151 47 243Q47 369 52 492Q52 504 56 552Q58 588 58 611Q58 615 51 634Q50 636 50 640Q50 648 52 652Q61 657 73 657Q77 657 85 657Q92 656 96 656Q102 656 113 660T131 664Q151 664 174 642Q186
630 212 612Q215 596 215 580Q215 563 210 553V427L214 422Q259 416 306 416Q337 416 398 419T491 422L495 427Q497 501 506 647L599 650Q623 635 668 604Q668 505 663 306T657 7Z" />
<glyph unicode="I" glyph-name="I" horiz-adv-x="267" d="M214 576Q214 576 214 274Q214 112 208 5Q191 -3 164 -5Q141 -7 119 -9Q109 3 84 19T49 47Q57 144 57 301Q57 346 57 434Q56 523 56 567Q56 579 57 602T59 636Q59 651 65 661Q79 655 94 655Q102 655 117
657T141 659Q147 659 157 657Q164 650 174 644L195 631Q222 614 222 599Q222 590 214 576Z" />
<glyph unicode="J" glyph-name="J" horiz-adv-x="747" d="M578 70Q571 62 545 45Q458 -13 356 -13Q297 -13 251 7Q217 23 161 65Q149 73 128 91Q121 100 108 117Q90 139 71 162T48 212Q57 220 90 235Q117 247 129 263Q152 243 196 199Q204 188 221 166Q247 136
308 136Q362 136 427 164Q438 178 450 205Q463 237 469 247Q474 332 480 501L163 498Q136 498 123 500Q106 516 101 523Q90 536 87 551Q80 586 80 617Q80 633 83 651Q114 649 175 649Q237 649 360 650T544 651Q584 651 602 628L634 611Q633 519 639 334Q643 280
643 285Q643 240 624 172Q603 98 578 70Z" />
<glyph unicode="K" glyph-name="K" horiz-adv-x="711" d="M636 -9Q625 -11 596 -11Q593 -11 587 -12Q580 -12 577 -12Q559 -12 537 1Q503 22 501 23Q400 199 338 289Q308 275 273 239Q245 209 217 179Q218 171 218 155Q218 134 215 92T211 27Q211 4 214 -19Q200
-25 177 -25Q125 -25 125 -25Q112 -10 87 9Q55 32 47 40V65Q47 91 49 141T52 217V653Q68 661 98 661Q126 661 156 655L160 649Q163 635 180 619Q202 597 206 591Q206 591 206 507Q206 463 210 427Q261 465 330 533Q431 632 445 645Q460 650 483 650Q493 650 526
647Q552 645 568 647L620 607V604Q621 593 608 584L602 580Q593 574 590 566L440 407L442 392Q514 266 663 16Q660 -4 636 -9Z" />
<glyph unicode="L" glyph-name="L" horiz-adv-x="635" d="M574 -9Q561 -9 536 -9Q510 -8 498 -8Q470 -8 413 -9T327 -10Q200 -10 117 2Q71 36 52 61Q54 107 54 198Q54 247 53 344T51 491Q51 553 53 605Q53 619 55 647Q57 661 69 669Q69 669 114 669Q152 669 168
642Q213 620 213 564Q213 548 210 518T206 473Q206 463 208 447Q210 443 212 434L214 153L225 145Q277 143 459 143H534Q553 129 584 94V79Q584 72 585 58Q585 44 585 37Q585 10 574 -9Z" />
<glyph unicode="M" glyph-name="M" horiz-adv-x="790" d="M732 1Q722 1 699 -3T663 -7Q623 -7 610 22Q566 32 566 90Q566 100 567 119T569 148Q569 166 565 179Q568 191 568 204Q568 217 565 238Q562 263 562 272H557Q482 150 421 31Q376 40 347 89Q336 113 314
161Q277 240 232 307H227Q219 250 218 164Q218 92 217 20Q214 11 200 -5Q181 -8 160 -8Q85 -8 57 47Q54 104 54 161Q54 208 55 301T57 442Q57 467 59 516T62 589Q62 627 60 646Q107 655 138 655Q142 655 149 655Q157 654 160 654Q167 645 208 619Q239 599 241 573L378
322H382Q483 476 570 646Q614 654 636 654Q655 654 665 651T697 625T732 595Q737 557 737 526Q737 504 735 492Q732 474 732 471Q732 461 733 442T734 412Q734 392 733 352T732 292Q732 255 734 235Q738 197 738 202L732 1Z" />
<glyph unicode="N" glyph-name="N" horiz-adv-x="719" d="M611 -17Q606 -17 595 -17Q584 -16 578 -16Q533 8 488 63Q451 110 414 158Q392 184 318 284Q260 363 218 406Q217 406 216 407Q214 407 213 407Q209 407 205 392Q207 260 216 -5Q199 -12 168 -12Q161 -12
146 -12Q132 -11 124 -11Q98 5 51 43Q51 89 53 181T56 319Q56 336 55 370T54 421Q54 448 56 501T58 580Q58 602 56 646Q74 653 95 653Q98 653 102 653Q107 652 109 652H126Q134 654 140 652Q154 650 167 637Q203 594 275 509Q353 421 505 241V264Q505 275 507 292Q510
314 510 319Q513 360 513 554Q513 586 515 654H606Q610 647 642 632Q665 621 665 584V530Q665 508 662 433Q660 372 662 335Q656 323 656 303Q656 297 657 285T659 266Q659 251 658 221T657 174Q657 83 667 0Q652 -17 611 -17Z" />
<glyph unicode="O" glyph-name="O" horiz-adv-x="814" d="M626 26Q588 -3 570 -9Q553 -11 518 -16Q437 -28 386 -28Q383 -27 374 -25L361 -22Q262 1 209 40Q201 46 170 75Q125 117 105 146Q78 183 64 233Q47 293 47 335Q47 393 65 436Q72 447 83 470Q84 474 87
482Q94 504 110 527Q158 597 285 646Q329 663 347 663Q503 663 581 602Q581 602 610 575Q649 539 669 517Q762 417 762 308Q762 224 727 150T626 26ZM572 452Q536 512 450 512Q407 512 360 502Q300 489 258 426Q219 367 219 304Q219 240 278 164Q284 155 298 140Q320
121 377 121Q447 121 486 134Q491 136 504 146Q582 203 596 266Q601 289 601 337Q601 404 572 452Z" />
<glyph unicode="P" glyph-name="P" horiz-adv-x="701" d="M601 290Q534 250 411 250Q393 250 357 251T301 252Q258 252 225 248Q219 234 219 188Q219 173 217 162Q211 128 211 87Q211 75 212 52Q212 28 212 16V-7Q177 -13 125 -13Q113 1 87 19Q57 39 47 49Q57
190 57 347Q57 381 56 447T54 547Q54 566 55 602Q55 639 55 657Q64 662 83 662T111 665Q150 660 204 660Q227 660 273 661T343 663Q380 663 418 659Q553 645 628 525Q651 488 651 439Q651 362 601 290ZM477 509Q456 506 413 506Q392 506 348 507T282 509Q243 509
212 505Q212 495 209 472T206 435Q206 419 209 404Q218 398 238 399T267 396V397Q277 398 298 398Q311 398 337 397T377 396Q461 396 487 431Q492 438 492 456Q492 477 477 509Z" />
<glyph unicode="Q" glyph-name="Q" horiz-adv-x="835" d="M660 53V49L725 -16V-19Q725 -37 707 -44T672 -56Q671 -56 657 -66Q649 -71 640 -71Q627 -71 609 -61Q580 -46 578 -45Q563 -16 525 -16Q510 -16 481 -21T436 -26Q432 -26 417 -24Q330 -12 289 4Q227 27
183 80Q144 124 105 167Q61 222 61 272Q61 286 62 293Q53 341 53 363Q53 491 156 581Q255 667 384 667Q497 667 611 591Q657 561 722 484Q729 476 741 461T760 412Q765 387 772 361T779 326Q779 158 660 53ZM599 440Q588 459 564 483Q537 508 521 512T467 517Q387
517 306 477Q296 472 278 461Q270 455 258 437Q211 369 211 282Q220 252 230 222Q243 182 257 170Q264 167 277 159Q349 117 388 117Q402 117 409 119Q409 120 410 121Q410 121 410 122Q410 131 397 140T384 157Q384 158 385 161Q399 176 423 188T469 211Q507 170
525 170Q598 228 613 285Q615 293 615 327Q615 411 599 440Z" />
<glyph unicode="R" glyph-name="R" horiz-adv-x="720" d="M634 313T606 284Q576 252 548 242L541 233Q560 197 598 126T656 18V16Q656 2 642 -5Q635 -5 620 -6Q606 -6 598 -6Q523 -6 488 41Q465 72 435 137T384 232L220 234L215 227L207 1L197 -10L102 -13L45
31Q52 116 52 250Q52 294 51 382T50 515Q50 587 53 657L64 663Q97 661 259 661Q375 661 446 645Q547 621 610 558Q641 527 652 500T663 428Q663 374 649 344ZM492 509L228 511L213 495L218 391L226 385Q233 386 248 386Q271 386 315 383T381 380Q443 380 472 393Q515
412 515 466Q515 495 492 509Z" />
<glyph unicode="S" glyph-name="S" horiz-adv-x="754" d="M685 94Q648 19 570 -10Q512 -31 412 -31Q352 -31 326 -27Q221 -11 47 142V154Q86 196 121 219Q213 114 361 114Q402 114 429 120Q506 137 544 194Q543 222 514 240Q436 246 358 253Q264 261 209 291Q203
294 171 317Q84 379 84 470Q84 572 220 636Q235 643 265 653Q281 656 311 656Q490 656 595 578Q619 555 668 511Q659 494 640 473Q625 455 609 437Q590 440 572 461Q549 486 541 491Q530 498 495 506L445 518Q440 516 360 505Q307 497 282 470Q246 432 246 418V415Q261
405 289 401Q312 400 335 398Q405 392 476 386Q554 376 611 349Q624 343 647 329Q673 307 689 261Q704 220 704 182Q704 133 685 94Z" />
<glyph unicode="T" glyph-name="T" horiz-adv-x="718" d="M656 510Q601 510 494 508L446 507L441 502V476Q441 416 437 296T432 114Q432 101 433 75Q433 49 433 36Q433 29 439 18T445 0Q445 -10 435 -14Q370 -14 363 -13Q321 -9 298 13Q298 22 286 28T273 46Q273
60 275 82Q278 111 278 119Q282 195 282 272Q282 272 279 494Q240 514 222 514Q211 514 188 512T152 510Q96 510 72 550Q47 562 47 592Q47 604 54 632Q60 657 58 672Q358 657 537 657Q557 657 566 658T579 660Q593 660 615 642T648 621Q665 601 665 569Q665 544
656 510Z" />
<glyph unicode="U" glyph-name="U" horiz-adv-x="721" d="M664 296Q664 261 665 248Q668 210 668 220Q668 125 595 31Q513 -19 392 -19Q296 -19 224 10Q211 15 156 54Q130 72 118 87Q84 129 69 190Q60 228 53 304Q47 369 47 367V612Q47 617 48 620Q49 635 50 637Q53
645 63 648Q70 650 104 650Q158 650 187 602Q190 598 209 572Q208 540 208 477Q208 295 219 169Q252 140 336 132Q366 129 364 129Q416 129 446 145T496 206Q499 213 503 225Q517 287 517 391Q517 390 505 636Q530 647 561 647Q577 647 592 644Q612 632 633 619T665
590Q671 545 671 499Q671 465 668 397T664 296Z" />
<glyph unicode="V" glyph-name="V" horiz-adv-x="697" d="M677 547L645 487Q636 468 544 263Q539 252 489 151Q456 84 441 37Q439 24 427 2Q418 -7 399 -7Q392 -7 352 -2Q298 5 266 58Q243 109 221 159Q171 268 122 377Q63 503 16 591Q-6 632 -6 642Q-6 650 -3
657Q-1 657 3 657Q7 656 8 656Q18 656 37 657T66 659Q109 659 130 632Q155 625 172 599Q178 589 197 549Q202 539 213 519Q219 507 251 432Q277 371 333 251Q380 318 434 422Q480 510 526 599Q530 607 533 615Q539 632 543 640Q551 654 561 658T592 662Q598 662
620 659Q637 657 648 659Q652 652 679 631Q702 613 702 601Q702 594 677 547Z" />
<glyph unicode="W" glyph-name="W" horiz-adv-x="844" d="M819 536Q802 472 737 280Q684 121 663 22Q657 -5 642 -8Q634 -10 624 -8Q621 -8 613 -8Q605 -7 600 -7Q585 -7 575 -13Q527 15 499 70Q481 105 464 177Q444 255 432 285L427 290L421 283Q420 281 416
275T403 237Q398 220 391 194L328 -5Q298 -7 286 -7Q267 -7 256 -3Q254 -3 245 3Q241 6 232 11T209 26Q187 45 177 90Q168 126 160 162L68 415Q-9 627 -9 635Q-9 646 9 646Q14 646 18 649Q18 649 59 649Q98 649 116 631Q132 626 145 592Q156 563 180 504T253 324L260
316L267 324Q278 377 312 480T357 638Q373 652 412 652H440L494 619Q496 612 534 474Q558 388 580 332Q591 343 599 366L695 644Q706 655 725 655Q733 655 748 653T770 651Q779 651 784 652Q787 649 819 632Q841 620 844 603Q833 592 827 571Q823 554 819 536Z"
/>
<glyph unicode="X" glyph-name="X" horiz-adv-x="778" d="M642 -5Q586 -5 558 29Q555 34 548 44Q533 62 503 99Q472 142 406 223H399Q399 223 207 -2Q165 -8 144 -8Q89 -8 64 27Q49 37 49 53Q49 66 59 77T79 99Q148 189 287 367Q284 380 270 397Q248 423 247 425Q237
439 91 630L95 652Q109 650 116 650Q127 650 147 651T178 653Q220 653 243 630L261 625L377 485L502 638L521 649Q559 651 577 651Q655 651 678 600Q679 597 679 592Q679 577 651 541Q635 521 567 447Q514 390 490 348Q535 282 608 183Q716 38 729 20V17Q729 -5
642 -5Z" />
<glyph unicode="Y" glyph-name="Y" horiz-adv-x="745" d="M664 550Q581 458 454 298Q451 200 443 4Q388 -7 382 -7Q356 -7 340 8Q303 22 293 60Q288 77 286 133Q286 138 285 150T284 169Q284 185 285 216T287 262Q287 323 276 346Q271 357 214 432Q200 451 50
636V653Q63 653 88 654T126 656Q189 656 234 617Q243 609 266 582T354 462L367 465Q398 495 458 566Q515 635 550 667Q558 665 610 665T663 636Q665 632 671 625Q692 600 692 590Q692 580 683 570T664 550Z" />
<glyph unicode="Z" glyph-name="Z" horiz-adv-x="705" d="M654 586Q626 550 479 335Q447 292 383 204Q368 188 345 149L354 144Q546 141 571 142L623 90Q620 81 620 65V39Q620 13 609 1Q567 3 547 3Q502 3 411 -3T274 -9Q227 -9 208 -7T187 -5Q178 -5 159 -6T130
-8Q79 -8 60 28Q50 33 41 47L52 84Q220 286 374 500L369 509H122Q101 528 58 563V654Q67 661 104 666Q110 668 112 668Q137 668 185 667T258 665H386Q520 665 587 660Q601 652 628 634T655 596Q655 589 654 586Z" />
<glyph unicode="`" glyph-name="grave" horiz-adv-x="398" d="M90 869Q91 870 96 871Q107 872 130 872Q224 872 258 839Q265 831 278 814Q318 764 319 763Q341 732 347 703Q319 688 256 688Q261 688 231 694Q182 711 131 761Q116 776 49 853Q50 864 66 866Q78
868 90 869Z" />
<glyph unicode="a" glyph-name="a" horiz-adv-x="713" d="M713 0Q705 2 689 2Q678 2 656 0T623 -2Q577 -2 554 35Q541 56 517 113Q496 163 476 188H273Q253 171 232 132Q215 100 199 68Q155 -13 99 -13Q63 -13 40 4Q22 18 1 52Q36 144 110 280Q208 460 229 503Q248
539 266 576Q288 618 297 651Q317 657 337 657Q368 657 382 653Q392 650 404 637T423 621T448 609Q470 596 487 563Q500 534 513 506Q517 498 530 476Q576 399 649 208Q673 151 718 36Q721 28 721 18Q721 7 713 0ZM374 413Q340 372 340 348Q346 347 365 343Q380
340 390 340Q396 340 406 342Q405 357 391 380T374 413Z" />
<glyph unicode="b" glyph-name="b" horiz-adv-x="716" d="M615 60Q580 21 523 8Q485 -1 415 -2Q311 -4 102 -8Q83 9 65 25Q42 48 42 66Q42 84 44 113Q48 151 48 160Q53 259 53 363Q53 448 50 496Q50 502 47 526Q45 545 45 557Q45 556 48 643L58 651Q113 646 355
646Q402 646 419 643Q426 641 442 637Q470 630 498 624Q532 615 550 603Q556 599 596 568Q626 545 636 513Q649 472 649 439Q649 404 636 376Q633 370 616 352T598 323Q598 325 599 318Q667 281 667 190Q667 87 615 60ZM464 502H444Q417 502 363 506T280 510Q241
510 212 505Q207 491 207 463Q207 415 207 415Q237 408 312 408Q319 408 376 413Q415 416 430 421Q460 431 472 455Q475 482 475 482Q475 498 464 502ZM496 250L212 253Q201 222 201 174V149Q212 144 229 144Q237 144 252 145T274 147Q287 147 298 143Q354 146
410 149Q477 158 507 197Q509 209 509 217Q509 241 496 250Z" />
<glyph unicode="c" glyph-name="c" horiz-adv-x="794" d="M87 203Q86 203 86 204Q86 204 85 204V205L80 213Q54 255 54 342Q54 420 107 511Q114 524 130 548Q138 558 170 583Q277 666 407 666Q467 666 550 637Q645 605 670 563Q676 552 713 530Q741 512 742 486L681
421Q648 423 598 468Q551 510 514 508L493 507Q365 501 300 461Q215 409 215 293Q215 249 238 195Q252 162 285 152T351 134Q436 137 480 147Q551 163 594 205Q601 206 617 214Q630 222 640 221L644 220Q734 181 746 115Q642 9 543 -10Q542 -10 499 -14T444 -18Q262
-18 141 124Q132 136 111 167L94 192Q90 198 87 203Z" />
<glyph unicode="d" glyph-name="d" horiz-adv-x="753" d="M682 179Q675 169 663 148Q638 106 624 88Q599 58 569 43Q555 28 528 17Q505 8 482 -1Q459 -3 137 -11Q93 11 87 15Q59 33 50 56Q54 112 54 181Q54 239 50 353T46 525Q46 592 50 647Q54 653 65 653T79
655Q165 655 396 644Q437 642 479 623Q488 619 554 582Q566 576 588 563Q609 546 634 510T670 446Q675 429 689 395T704 308Q704 225 682 179ZM520 440Q497 489 423 501Q423 501 390 502Q320 504 318 504Q259 504 212 496Q209 409 209 324Q209 239 212 153Q329
150 328 150Q387 150 415 155Q477 166 511 219Q541 266 541 332Q541 396 520 440Z" />
<glyph unicode="e" glyph-name="e" horiz-adv-x="699" d="M638 8Q618 -2 587 -2Q575 -2 551 0T514 2Q511 2 504 1T492 0Q478 0 451 2T410 4Q374 4 302 1T194 -3Q155 -3 114 0Q92 16 52 52Q50 98 50 120Q50 165 54 253T58 386Q58 493 54 555Q49 633 49 620Q49 627
54 657Q313 648 396 648Q501 648 576 653Q584 650 597 637T622 621V518Q550 510 433 510Q407 510 353 511Q300 511 273 511Q265 511 248 511Q231 510 222 510Q211 483 211 462Q211 445 219 431Q224 431 294 427Q338 425 367 417Q373 402 389 392T421 371L423 277L409
266Q401 267 384 267Q366 267 330 266T274 264Q240 264 224 266L216 258Q217 253 217 242Q217 233 216 216T214 189Q214 168 222 155H249Q290 155 371 151T493 146Q534 146 555 148Q587 151 589 151Q610 151 649 87Q649 74 644 48T638 8Z" />
<glyph unicode="f" glyph-name="f" horiz-adv-x="673" d="M619 555T619 550Q619 547 620 540Q620 533 620 529Q620 505 589 505Q587 505 581 506Q576 506 573 506Q571 506 483 505Q425 504 308 503Q222 502 224 501L223 502H222Q220 502 212 494Q212 489 212 478Q211
467 211 461Q211 438 217 417Q236 419 272 419Q299 419 345 417Q398 414 418 414Q433 404 460 379Q462 355 462 345Q462 337 461 305Q460 280 461 265Q434 261 402 261Q387 261 359 262T316 263Q255 263 217 246Q220 212 220 175Q220 119 212 5Q192 -9 160 -9Q112
-9 112 -9Q69 4 57 45Q52 62 52 125Q52 132 51 145T50 166Q50 163 54 218Q57 259 57 330Q57 378 55 472T52 613V638L60 647Q108 649 131 649Q190 649 307 645T484 640Q510 640 566 642Q570 637 582 627Q590 622 601 613Q624 595 624 577Q624 571 622 563Z" />
<glyph unicode="g" glyph-name="g" horiz-adv-x="766" d="M701 152Q700 136 694 105Q690 90 674 68Q641 22 566 2Q562 1 438 -20Q408 -25 392 -25Q322 -25 245 22Q229 32 118 114Q108 129 76 195Q70 207 59 230Q45 269 45 347Q45 463 97 520Q106 530 138 557Q262
662 390 662Q456 662 517 634Q563 613 627 564Q642 551 675 528Q699 511 699 502Q699 491 678 471T653 436Q649 429 639 429Q632 429 623 433Q619 435 586 459Q507 517 448 517Q410 517 364 499Q325 482 285 465Q197 367 197 281Q197 209 247 169Q293 133 368 133Q375
133 387 135T405 137Q475 143 485 145Q531 156 547 192Q556 212 556 225Q556 231 553 235H414Q382 249 352 293Q349 307 349 319Q349 338 357 378H373Q392 378 429 375T484 372Q510 372 560 375T636 378H659Q668 373 684 354T713 330Q714 318 714 294Q714 243 701
152Z" />
<glyph unicode="h" glyph-name="h" horiz-adv-x="725" d="M657 7L647 -3Q635 0 623 0Q616 0 602 -1T580 -2Q543 -2 533 26Q517 31 506 51V254L499 260Q470 256 433 256Q412 256 370 257T305 259Q259 259 225 254L218 246Q217 237 210 148Q205 88 205 49Q205 42
206 30Q206 17 206 11Q203 0 196 -7Q178 -9 168 -9Q90 -9 50 56Q47 151 47 243Q47 369 52 492Q52 504 56 552Q58 588 58 611Q58 615 51 634Q50 636 50 640Q50 648 52 652Q61 657 73 657Q77 657 85 657Q92 656 96 656Q102 656 113 660T131 664Q151 664 174 642Q186
630 212 612Q215 596 215 580Q215 563 210 553V427L214 422Q259 416 306 416Q337 416 398 419T491 422L495 427Q497 501 506 647L599 650Q623 635 668 604Q668 505 663 306T657 7Z" />
<glyph unicode="i" glyph-name="i" horiz-adv-x="267" d="M214 576Q214 576 214 274Q214 112 208 5Q191 -3 164 -5Q141 -7 119 -9Q109 3 84 19T49 47Q57 144 57 301Q57 346 57 434Q56 523 56 567Q56 579 57 602T59 636Q59 651 65 661Q79 655 94 655Q102 655 117
657T141 659Q147 659 157 657Q164 650 174 644L195 631Q222 614 222 599Q222 590 214 576Z" />
<glyph unicode="j" glyph-name="j" horiz-adv-x="747" d="M578 70Q571 62 545 45Q458 -13 356 -13Q297 -13 251 7Q217 23 161 65Q149 73 128 91Q121 100 108 117Q90 139 71 162T48 212Q57 220 90 235Q117 247 129 263Q152 243 196 199Q204 188 221 166Q247 136
308 136Q362 136 427 164Q438 178 450 205Q463 237 469 247Q474 332 480 501L163 498Q136 498 123 500Q106 516 101 523Q90 536 87 551Q80 586 80 617Q80 633 83 651Q114 649 175 649Q237 649 360 650T544 651Q584 651 602 628L634 611Q633 519 639 334Q643 280
643 285Q643 240 624 172Q603 98 578 70Z" />
<glyph unicode="k" glyph-name="k" horiz-adv-x="711" d="M636 -9Q625 -11 596 -11Q593 -11 587 -12Q580 -12 577 -12Q559 -12 537 1Q503 22 501 23Q400 199 338 289Q308 275 273 239Q245 209 217 179Q218 171 218 155Q218 134 215 92T211 27Q211 4 214 -19Q200
-25 177 -25Q125 -25 125 -25Q112 -10 87 9Q55 32 47 40V65Q47 91 49 141T52 217V653Q68 661 98 661Q126 661 156 655L160 649Q163 635 180 619Q202 597 206 591Q206 591 206 507Q206 463 210 427Q261 465 330 533Q431 632 445 645Q460 650 483 650Q493 650 526
647Q552 645 568 647L620 607V604Q621 593 608 584L602 580Q593 574 590 566L440 407L442 392Q514 266 663 16Q660 -4 636 -9Z" />
<glyph unicode="l" glyph-name="l" horiz-adv-x="635" d="M574 -9Q561 -9 536 -9Q510 -8 498 -8Q470 -8 413 -9T327 -10Q200 -10 117 2Q71 36 52 61Q54 107 54 198Q54 247 53 344T51 491Q51 553 53 605Q53 619 55 647Q57 661 69 669Q69 669 114 669Q152 669 168
642Q213 620 213 564Q213 548 210 518T206 473Q206 463 208 447Q210 443 212 434L214 153L225 145Q277 143 459 143H534Q553 129 584 94V79Q584 72 585 58Q585 44 585 37Q585 10 574 -9Z" />
<glyph unicode="m" glyph-name="m" horiz-adv-x="790" d="M732 1Q722 1 699 -3T663 -7Q623 -7 610 22Q566 32 566 90Q566 100 567 119T569 148Q569 166 565 179Q568 191 568 204Q568 217 565 238Q562 263 562 272H557Q482 150 421 31Q376 40 347 89Q336 113 314
161Q277 240 232 307H227Q219 250 218 164Q218 92 217 20Q214 11 200 -5Q181 -8 160 -8Q85 -8 57 47Q54 104 54 161Q54 208 55 301T57 442Q57 467 59 516T62 589Q62 627 60 646Q107 655 138 655Q142 655 149 655Q157 654 160 654Q167 645 208 619Q239 599 241 573L378
322H382Q483 476 570 646Q614 654 636 654Q655 654 665 651T697 625T732 595Q737 557 737 526Q737 504 735 492Q732 474 732 471Q732 461 733 442T734 412Q734 392 733 352T732 292Q732 255 734 235Q738 197 738 202L732 1Z" />
<glyph unicode="n" glyph-name="n" horiz-adv-x="719" d="M611 -17Q606 -17 595 -17Q584 -16 578 -16Q533 8 488 63Q451 110 414 158Q392 184 318 284Q260 363 218 406Q217 406 216 407Q214 407 213 407Q209 407 205 392Q207 260 216 -5Q199 -12 168 -12Q161 -12
146 -12Q132 -11 124 -11Q98 5 51 43Q51 89 53 181T56 319Q56 336 55 370T54 421Q54 448 56 501T58 580Q58 602 56 646Q74 653 95 653Q98 653 102 653Q107 652 109 652H126Q134 654 140 652Q154 650 167 637Q203 594 275 509Q353 421 505 241V264Q505 275 507 292Q510
314 510 319Q513 360 513 554Q513 586 515 654H606Q610 647 642 632Q665 621 665 584V530Q665 508 662 433Q660 372 662 335Q656 323 656 303Q656 297 657 285T659 266Q659 251 658 221T657 174Q657 83 667 0Q652 -17 611 -17Z" />
<glyph unicode="o" glyph-name="o" horiz-adv-x="814" d="M626 26Q588 -3 570 -9Q553 -11 518 -16Q437 -28 386 -28Q383 -27 374 -25L361 -22Q262 1 209 40Q201 46 170 75Q125 117 105 146Q78 183 64 233Q47 293 47 335Q47 393 65 436Q72 447 83 470Q84 474 87
482Q94 504 110 527Q158 597 285 646Q329 663 347 663Q503 663 581 602Q581 602 610 575Q649 539 669 517Q762 417 762 308Q762 224 727 150T626 26ZM572 452Q536 512 450 512Q407 512 360 502Q300 489 258 426Q219 367 219 304Q219 240 278 164Q284 155 298 140Q320
121 377 121Q447 121 486 134Q491 136 504 146Q582 203 596 266Q601 289 601 337Q601 404 572 452Z" />
<glyph unicode="p" glyph-name="p" horiz-adv-x="701" d="M601 290Q534 250 411 250Q393 250 357 251T301 252Q258 252 225 248Q219 234 219 188Q219 173 217 162Q211 128 211 87Q211 75 212 52Q212 28 212 16V-7Q177 -13 125 -13Q113 1 87 19Q57 39 47 49Q57
190 57 347Q57 381 56 447T54 547Q54 566 55 602Q55 639 55 657Q64 662 83 662T111 665Q150 660 204 660Q227 660 273 661T343 663Q380 663 418 659Q553 645 628 525Q651 488 651 439Q651 362 601 290ZM477 509Q456 506 413 506Q392 506 348 507T282 509Q243 509
212 505Q212 495 209 472T206 435Q206 419 209 404Q218 398 238 399T267 396V397Q277 398 298 398Q311 398 337 397T377 396Q461 396 487 431Q492 438 492 456Q492 477 477 509Z" />
<glyph unicode="q" glyph-name="q" horiz-adv-x="835" d="M660 53V49L725 -16V-19Q725 -37 707 -44T672 -56Q671 -56 657 -66Q649 -71 640 -71Q627 -71 609 -61Q580 -46 578 -45Q563 -16 525 -16Q510 -16 481 -21T436 -26Q432 -26 417 -24Q330 -12 289 4Q227 27
183 80Q144 124 105 167Q61 222 61 272Q61 286 62 293Q53 341 53 363Q53 491 156 581Q255 667 384 667Q497 667 611 591Q657 561 722 484Q729 476 741 461T760 412Q765 387 772 361T779 326Q779 158 660 53ZM599 440Q588 459 564 483Q537 508 521 512T467 517Q387
517 306 477Q296 472 278 461Q270 455 258 437Q211 369 211 282Q220 252 230 222Q243 182 257 170Q264 167 277 159Q349 117 388 117Q402 117 409 119Q409 120 410 121Q410 121 410 122Q410 131 397 140T384 157Q384 158 385 161Q399 176 423 188T469 211Q507 170
525 170Q598 228 613 285Q615 293 615 327Q615 411 599 440Z" />
<glyph unicode="r" glyph-name="r" horiz-adv-x="720" d="M634 313T606 284Q576 252 548 242L541 233Q560 197 598 126T656 18V16Q656 2 642 -5Q635 -5 620 -6Q606 -6 598 -6Q523 -6 488 41Q465 72 435 137T384 232L220 234L215 227L207 1L197 -10L102 -13L45
31Q52 116 52 250Q52 294 51 382T50 515Q50 587 53 657L64 663Q97 661 259 661Q375 661 446 645Q547 621 610 558Q641 527 652 500T663 428Q663 374 649 344ZM492 509L228 511L213 495L218 391L226 385Q233 386 248 386Q271 386 315 383T381 380Q443 380 472 393Q515
412 515 466Q515 495 492 509Z" />
<glyph unicode="s" glyph-name="s" horiz-adv-x="754" d="M685 94Q648 19 570 -10Q512 -31 412 -31Q352 -31 326 -27Q221 -11 47 142V154Q86 196 121 219Q213 114 361 114Q402 114 429 120Q506 137 544 194Q543 222 514 240Q436 246 358 253Q264 261 209 291Q203
294 171 317Q84 379 84 470Q84 572 220 636Q235 643 265 653Q281 656 311 656Q490 656 595 578Q619 555 668 511Q659 494 640 473Q625 455 609 437Q590 440 572 461Q549 486 541 491Q530 498 495 506L445 518Q440 516 360 505Q307 497 282 470Q246 432 246 418V415Q261
405 289 401Q312 400 335 398Q405 392 476 386Q554 376 611 349Q624 343 647 329Q673 307 689 261Q704 220 704 182Q704 133 685 94Z" />
<glyph unicode="t" glyph-name="t" horiz-adv-x="718" d="M656 510Q601 510 494 508L446 507L441 502V476Q441 416 437 296T432 114Q432 101 433 75Q433 49 433 36Q433 29 439 18T445 0Q445 -10 435 -14Q370 -14 363 -13Q321 -9 298 13Q298 22 286 28T273 46Q273
60 275 82Q278 111 278 119Q282 195 282 272Q282 272 279 494Q240 514 222 514Q211 514 188 512T152 510Q96 510 72 550Q47 562 47 592Q47 604 54 632Q60 657 58 672Q358 657 537 657Q557 657 566 658T579 660Q593 660 615 642T648 621Q665 601 665 569Q665 544
656 510Z" />
<glyph unicode="u" glyph-name="u" horiz-adv-x="721" d="M664 296Q664 261 665 248Q668 210 668 220Q668 125 595 31Q513 -19 392 -19Q296 -19 224 10Q211 15 156 54Q130 72 118 87Q84 129 69 190Q60 228 53 304Q47 369 47 367V612Q47 617 48 620Q49 635 50 637Q53
645 63 648Q70 650 104 650Q158 650 187 602Q190 598 209 572Q208 540 208 477Q208 295 219 169Q252 140 336 132Q366 129 364 129Q416 129 446 145T496 206Q499 213 503 225Q517 287 517 391Q517 390 505 636Q530 647 561 647Q577 647 592 644Q612 632 633 619T665
590Q671 545 671 499Q671 465 668 397T664 296Z" />
<glyph unicode="v" glyph-name="v" horiz-adv-x="697" d="M677 547L645 487Q636 468 544 263Q539 252 489 151Q456 84 441 37Q439 24 427 2Q418 -7 399 -7Q392 -7 352 -2Q298 5 266 58Q243 109 221 159Q171 268 122 377Q63 503 16 591Q-6 632 -6 642Q-6 650 -3
657Q-1 657 3 657Q7 656 8 656Q18 656 37 657T66 659Q109 659 130 632Q155 625 172 599Q178 589 197 549Q202 539 213 519Q219 507 251 432Q277 371 333 251Q380 318 434 422Q480 510 526 599Q530 607 533 615Q539 632 543 640Q551 654 561 658T592 662Q598 662
620 659Q637 657 648 659Q652 652 679 631Q702 613 702 601Q702 594 677 547Z" />
<glyph unicode="w" glyph-name="w" horiz-adv-x="844" d="M819 536Q802 472 737 280Q684 121 663 22Q657 -5 642 -8Q634 -10 624 -8Q621 -8 613 -8Q605 -7 600 -7Q585 -7 575 -13Q527 15 499 70Q481 105 464 177Q444 255 432 285L427 290L421 283Q420 281 416
275T403 237Q398 220 391 194L328 -5Q298 -7 286 -7Q267 -7 256 -3Q254 -3 245 3Q241 6 232 11T209 26Q187 45 177 90Q168 126 160 162L68 415Q-9 627 -9 635Q-9 646 9 646Q14 646 18 649Q18 649 59 649Q98 649 116 631Q132 626 145 592Q156 563 180 504T253 324L260
316L267 324Q278 377 312 480T357 638Q373 652 412 652H440L494 619Q496 612 534 474Q558 388 580 332Q591 343 599 366L695 644Q706 655 725 655Q733 655 748 653T770 651Q779 651 784 652Q787 649 819 632Q841 620 844 603Q833 592 827 571Q823 554 819 536Z"
/>
<glyph unicode="x" glyph-name="x" horiz-adv-x="778" d="M642 -5Q586 -5 558 29Q555 34 548 44Q533 62 503 99Q472 142 406 223H399Q399 223 207 -2Q165 -8 144 -8Q89 -8 64 27Q49 37 49 53Q49 66 59 77T79 99Q148 189 287 367Q284 380 270 397Q248 423 247 425Q237
439 91 630L95 652Q109 650 116 650Q127 650 147 651T178 653Q220 653 243 630L261 625L377 485L502 638L521 649Q559 651 577 651Q655 651 678 600Q679 597 679 592Q679 577 651 541Q635 521 567 447Q514 390 490 348Q535 282 608 183Q716 38 729 20V17Q729 -5
642 -5Z" />
<glyph unicode="y" glyph-name="y" horiz-adv-x="745" d="M664 550Q581 458 454 298Q451 200 443 4Q388 -7 382 -7Q356 -7 340 8Q303 22 293 60Q288 77 286 133Q286 138 285 150T284 169Q284 185 285 216T287 262Q287 323 276 346Q271 357 214 432Q200 451 50
636V653Q63 653 88 654T126 656Q189 656 234 617Q243 609 266 582T354 462L367 465Q398 495 458 566Q515 635 550 667Q558 665 610 665T663 636Q665 632 671 625Q692 600 692 590Q692 580 683 570T664 550Z" />
<glyph unicode="z" glyph-name="z" horiz-adv-x="705" d="M654 586Q626 550 479 335Q447 292 383 204Q368 188 345 149L354 144Q546 141 571 142L623 90Q620 81 620 65V39Q620 13 609 1Q567 3 547 3Q502 3 411 -3T274 -9Q227 -9 208 -7T187 -5Q178 -5 159 -6T130
-8Q79 -8 60 28Q50 33 41 47L52 84Q220 286 374 500L369 509H122Q101 528 58 563V654Q67 661 104 666Q110 668 112 668Q137 668 185 667T258 665H386Q520 665 587 660Q601 652 628 634T655 596Q655 589 654 586Z" />
<glyph unicode="&#xa0;" glyph-name="nbspace" horiz-adv-x="400" />
<glyph unicode="&#xa3;" glyph-name="sterling" horiz-adv-x="813" d="M613 405Q605 405 588 406T561 407Q526 424 512 436Q487 457 485 484Q448 505 409 505Q377 505 346 485Q313 462 313 432Q313 424 316 416Q328 411 372 411Q388 411 404 408Q451 367 468 340Q468
331 471 314T474 288Q474 274 467 263L324 253Q318 246 318 235Q318 227 322 211T326 185Q326 180 324 172L330 166H568Q601 150 650 105L648 16L633 7H594Q539 7 430 2T266 -3Q200 -3 132 3Q126 8 108 18Q78 31 68 39Q48 54 48 76Q48 80 49 88T51 100Q51 105 50
115T49 130Q49 155 79 158Q93 159 107 161T132 170V180Q132 191 133 213T135 247Q135 276 126 295Q119 299 110 299Q105 299 94 298T76 296Q59 296 59 313Q59 317 60 325T61 338V364Q61 389 64 401Q75 408 92 408Q116 408 121 409Q133 412 140 420Q140 490 150
526Q165 580 208 614Q263 658 365 658Q412 658 480 649Q563 598 571 593Q624 556 644 519Q652 505 674 416Q651 405 613 405Z" />
<glyph unicode="&#xa8;" glyph-name="dieresis" horiz-adv-x="697" d="M600 655Q589 649 571 649Q549 649 541 647Q530 654 509 670Q440 723 440 766Q440 780 444 791Q461 810 492 833Q499 835 514 835Q549 835 583 814T636 761Q645 746 645 723Q645 677 600 655ZM230
655Q219 649 201 649Q179 649 171 647Q160 654 139 670Q70 723 70 766Q70 780 74 791Q91 810 122 833Q129 835 144 835Q179 835 213 814T266 761Q275 746 275 723Q275 677 230 655Z" />
<glyph unicode="&#xab;" glyph-name="guillemotleft" horiz-adv-x="633" d="M250 317V316L248 310Q248 310 239 290Q234 278 234 269Q234 258 243 249Q249 232 275 185Q297 146 302 119Q312 112 325 83Q301 77 278 77Q218 77 177 113T99 209Q69 262 39 316Q63
380 168 490Q182 493 209 493T251 496L308 431V423Q308 399 269 354Q250 332 250 317ZM520 307V306L518 300Q518 300 509 280Q504 268 504 259Q504 248 513 239Q519 222 545 175Q567 136 572 109Q582 102 595 73Q571 67 548 67Q488 67 447 103T369 199Q339 252
309 306Q333 370 438 480Q452 483 479 483T521 486L578 421V413Q578 389 539 344Q520 322 520 307Z" />
<glyph unicode="&#xac;" glyph-name="logicalnot" horiz-adv-x="1000" />
<glyph unicode="4;" glyph-name="acute" horiz-adv-x="509" d="M477 786Q472 782 461 772Q444 761 434 744Q417 725 383 684Q317 678 316 678Q265 678 233 718Q217 738 217 750Q217 770 263 816Q270 822 281 834Q285 843 295 859Q297 862 315 871Q356 870
397 868Q444 863 469 835Q489 831 496 820Q495 801 477 786Z" />
<glyph unicode="b;" glyph-name="guillemotright" horiz-adv-x="611" d="M292 252T291 239Q266 214 242 169Q222 130 202 92L128 87Q87 111 84 113Q59 130 45 148Q59 184 86 231Q108 270 131 310L130 323Q127 358 114 376Q77 426 48 478L52 496H102Q133 496
149 494Q151 494 166 486Q197 470 224 431Q246 398 268 364Q274 357 309 323Q321 312 321 301Q321 289 307 271ZM542 242T541 229Q516 204 492 159Q472 120 452 82L378 77Q337 101 334 103Q309 120 295 138Q309 174 336 221Q358 260 381 300L380 313Q377 348 364
366Q327 416 298 468L302 486H352Q383 486 399 484Q401 484 416 476Q447 460 474 421Q496 388 518 354Q524 347 559 313Q571 302 571 291Q571 279 557 261Z" />
<glyph unicode="0;" glyph-name="Agrave" horiz-adv-x="686" d="M713 0Q705 2 689 2Q678 2 656 0T623 -2Q577 -2 554 35Q541 56 517 113Q496 163 476 188H273Q253 171 232 132Q215 100 199 68Q155 -13 99 -13Q63 -13 40 4Q22 18 1 52Q36 144 110 280Q208 460
229 503Q248 539 266 576Q288 618 297 651Q317 657 337 657Q368 657 382 653Q392 650 404 637T423 621T448 609Q470 596 487 563Q500 534 513 506Q517 498 530 476Q576 399 649 208Q673 151 718 36Q721 28 721 18Q721 7 713 0ZM374 413Q340 372 340 348Q346 347
365 343Q380 340 390 340Q396 340 406 342Q405 357 391 380T374 413ZM180 869Q181 870 186 871Q197 872 220 872Q314 872 348 839Q355 831 368 814Q408 764 409 763Q431 732 437 703Q409 688 346 688Q351 688 321 694Q272 711 221 761Q206 776 139 853Q140 864
156 866Q168 868 180 869Z" />
<glyph unicode="1;" glyph-name="Aacute" horiz-adv-x="686" d="M713 0Q705 2 689 2Q678 2 656 0T623 -2Q577 -2 554 35Q541 56 517 113Q496 163 476 188H273Q253 171 232 132Q215 100 199 68Q155 -13 99 -13Q63 -13 40 4Q22 18 1 52Q36 144 110 280Q208 460
229 503Q248 539 266 576Q288 618 297 651Q317 657 337 657Q368 657 382 653Q392 650 404 637T423 621T448 609Q470 596 487 563Q500 534 513 506Q517 498 530 476Q576 399 649 208Q673 151 718 36Q721 28 721 18Q721 7 713 0ZM374 413Q340 372 340 348Q346 347
365 343Q380 340 390 340Q396 340 406 342Q405 357 391 380T374 413ZM477 786Q472 782 461 772Q444 761 434 744Q417 725 383 684Q317 678 316 678Q265 678 233 718Q217 738 217 750Q217 770 263 816Q270 822 281 834Q285 843 295 859Q297 862 315 871Q356 870
397 868Q444 863 469 835Q489 831 496 820Q495 801 477 786Z" />
<glyph unicode="2;" glyph-name="Acircumflex" horiz-adv-x="686" d="M713 0Q705 2 689 2Q678 2 656 0T623 -2Q577 -2 554 35Q541 56 517 113Q496 163 476 188H273Q253 171 232 132Q215 100 199 68Q155 -13 99 -13Q63 -13 40 4Q22 18 1 52Q36 144 110 280Q208
460 229 503Q248 539 266 576Q288 618 297 651Q317 657 337 657Q368 657 382 653Q392 650 404 637T423 621T448 609Q470 596 487 563Q500 534 513 506Q517 498 530 476Q576 399 649 208Q673 151 718 36Q721 28 721 18Q721 7 713 0ZM374 413Q340 372 340 348Q346
347 365 343Q380 340 390 340Q396 340 406 342Q405 357 391 380T374 413Z" />
<glyph unicode="4;" glyph-name="Adieresis" horiz-adv-x="686" d="M713 0Q705 2 689 2Q678 2 656 0T623 -2Q577 -2 554 35Q541 56 517 113Q496 163 476 188H273Q253 171 232 132Q215 100 199 68Q155 -13 99 -13Q63 -13 40 4Q22 18 1 52Q36 144 110 280Q208
460 229 503Q248 539 266 576Q288 618 297 651Q317 657 337 657Q368 657 382 653Q392 650 404 637T423 621T448 609Q470 596 487 563Q500 534 513 506Q517 498 530 476Q576 399 649 208Q673 151 718 36Q721 28 721 18Q721 7 713 0ZM374 413Q340 372 340 348Q346
347 365 343Q380 340 390 340Q396 340 406 342Q405 357 391 380T374 413ZM846 655Q835 649 817 649Q795 649 787 647Q776 654 755 670Q686 723 686 766Q686 780 690 791Q707 810 738 833Q745 835 760 835Q795 835 829 814T882 761Q891 746 891 723Q891 677 846
655ZM476 655Q465 649 447 649Q425 649 417 647Q406 654 385 670Q316 723 316 766Q316 780 320 791Q337 810 368 833Q375 835 390 835Q425 835 459 814T512 761Q521 746 521 723Q521 677 476 655Z" />
<glyph unicode="5;" glyph-name="Aring" horiz-adv-x="686" d="M713 0Q705 2 689 2Q678 2 656 0T623 -2Q577 -2 554 35Q541 56 517 113Q496 163 476 188H273Q253 171 232 132Q215 100 199 68Q155 -13 99 -13Q63 -13 40 4Q22 18 1 52Q36 144 110 280Q208 460
229 503Q248 539 266 576Q288 618 297 651Q317 657 337 657Q368 657 382 653Q392 650 404 637T423 621T448 609Q470 596 487 563Q500 534 513 506Q517 498 530 476Q576 399 649 208Q673 151 718 36Q721 28 721 18Q721 7 713 0ZM374 413Q340 372 340 348Q346 347
365 343Q380 340 390 340Q396 340 406 342Q405 357 391 380T374 413Z" />
<glyph unicode="7;" glyph-name="Ccedilla" horiz-adv-x="1000" />
<glyph unicode="8;" glyph-name="Egrave" horiz-adv-x="699" d="M638 8Q618 -2 587 -2Q575 -2 551 0T514 2Q511 2 504 1T492 0Q478 0 451 2T410 4Q374 4 302 1T194 -3Q155 -3 114 0Q92 16 52 52Q50 98 50 120Q50 165 54 253T58 386Q58 493 54 555Q49 633 49
620Q49 627 54 657Q313 648 396 648Q501 648 576 653Q584 650 597 637T622 621V518Q550 510 433 510Q407 510 353 511Q300 511 273 511Q265 511 248 511Q231 510 222 510Q211 483 211 462Q211 445 219 431Q224 431 294 427Q338 425 367 417Q373 402 389 392T421
371L423 277L409 266Q401 267 384 267Q366 267 330 266T274 264Q240 264 224 266L216 258Q217 253 217 242Q217 233 216 216T214 189Q214 168 222 155H249Q290 155 371 151T493 146Q534 146 555 148Q587 151 589 151Q610 151 649 87Q649 74 644 48T638 8ZM180 869Q181
870 186 871Q197 872 220 872Q314 872 348 839Q355 831 368 814Q408 764 409 763Q431 732 437 703Q409 688 346 688Q351 688 321 694Q272 711 221 761Q206 776 139 853Q140 864 156 866Q168 868 180 869Z" />
<glyph unicode="9;" glyph-name="Eacute" horiz-adv-x="699" d="M638 8Q618 -2 587 -2Q575 -2 551 0T514 2Q511 2 504 1T492 0Q478 0 451 2T410 4Q374 4 302 1T194 -3Q155 -3 114 0Q92 16 52 52Q50 98 50 120Q50 165 54 253T58 386Q58 493 54 555Q49 633 49
620Q49 627 54 657Q313 648 396 648Q501 648 576 653Q584 650 597 637T622 621V518Q550 510 433 510Q407 510 353 511Q300 511 273 511Q265 511 248 511Q231 510 222 510Q211 483 211 462Q211 445 219 431Q224 431 294 427Q338 425 367 417Q373 402 389 392T421
371L423 277L409 266Q401 267 384 267Q366 267 330 266T274 264Q240 264 224 266L216 258Q217 253 217 242Q217 233 216 216T214 189Q214 168 222 155H249Q290 155 371 151T493 146Q534 146 555 148Q587 151 589 151Q610 151 649 87Q649 74 644 48T638 8ZM477 786Q472
782 461 772Q444 761 434 744Q417 725 383 684Q317 678 316 678Q265 678 233 718Q217 738 217 750Q217 770 263 816Q270 822 281 834Q285 843 295 859Q297 862 315 871Q356 870 397 868Q444 863 469 835Q489 831 496 820Q495 801 477 786Z" />
<glyph unicode="a;" glyph-name="Ecircumflex" horiz-adv-x="699" d="M638 8Q618 -2 587 -2Q575 -2 551 0T514 2Q511 2 504 1T492 0Q478 0 451 2T410 4Q374 4 302 1T194 -3Q155 -3 114 0Q92 16 52 52Q50 98 50 120Q50 165 54 253T58 386Q58 493 54 555Q49
633 49 620Q49 627 54 657Q313 648 396 648Q501 648 576 653Q584 650 597 637T622 621V518Q550 510 433 510Q407 510 353 511Q300 511 273 511Q265 511 248 511Q231 510 222 510Q211 483 211 462Q211 445 219 431Q224 431 294 427Q338 425 367 417Q373 402 389
392T421 371L423 277L409 266Q401 267 384 267Q366 267 330 266T274 264Q240 264 224 266L216 258Q217 253 217 242Q217 233 216 216T214 189Q214 168 222 155H249Q290 155 371 151T493 146Q534 146 555 148Q587 151 589 151Q610 151 649 87Q649 74 644 48T638
8Z" />
<glyph unicode="b;" glyph-name="Edieresis" horiz-adv-x="699" d="M638 8Q618 -2 587 -2Q575 -2 551 0T514 2Q511 2 504 1T492 0Q478 0 451 2T410 4Q374 4 302 1T194 -3Q155 -3 114 0Q92 16 52 52Q50 98 50 120Q50 165 54 253T58 386Q58 493 54 555Q49 633
49 620Q49 627 54 657Q313 648 396 648Q501 648 576 653Q584 650 597 637T622 621V518Q550 510 433 510Q407 510 353 511Q300 511 273 511Q265 511 248 511Q231 510 222 510Q211 483 211 462Q211 445 219 431Q224 431 294 427Q338 425 367 417Q373 402 389 392T421
371L423 277L409 266Q401 267 384 267Q366 267 330 266T274 264Q240 264 224 266L216 258Q217 253 217 242Q217 233 216 216T214 189Q214 168 222 155H249Q290 155 371 151T493 146Q534 146 555 148Q587 151 589 151Q610 151 649 87Q649 74 644 48T638 8Z" />
<glyph unicode="&#xd0;" glyph-name="Eth" horiz-adv-x="1000" />
<glyph unicode="&#xd2;" glyph-name="Ograve" horiz-adv-x="814" d="M626 26Q588 -3 570 -9Q553 -11 518 -16Q437 -28 386 -28Q383 -27 374 -25L361 -22Q262 1 209 40Q201 46 170 75Q125 117 105 146Q78 183 64 233Q47 293 47 335Q47 393 65 436Q72 447 83 470Q84
474 87 482Q94 504 110 527Q158 597 285 646Q329 663 347 663Q503 663 581 602Q581 602 610 575Q649 539 669 517Q762 417 762 308Q762 224 727 150T626 26ZM572 452Q536 512 450 512Q407 512 360 502Q300 489 258 426Q219 367 219 304Q219 240 278 164Q284 155
298 140Q320 121 377 121Q447 121 486 134Q491 136 504 146Q582 203 596 266Q601 289 601 337Q601 404 572 452ZM240 869Q241 870 246 871Q257 872 280 872Q374 872 408 839Q415 831 428 814Q468 764 469 763Q491 732 497 703Q469 688 406 688Q411 688 381 694Q332
711 281 761Q266 776 199 853Q200 864 216 866Q228 868 240 869Z" />
<glyph unicode="&#xd3;" glyph-name="Oacute" horiz-adv-x="814" d="M626 26Q588 -3 570 -9Q553 -11 518 -16Q437 -28 386 -28Q383 -27 374 -25L361 -22Q262 1 209 40Q201 46 170 75Q125 117 105 146Q78 183 64 233Q47 293 47 335Q47 393 65 436Q72 447 83 470Q84
474 87 482Q94 504 110 527Q158 597 285 646Q329 663 347 663Q503 663 581 602Q581 602 610 575Q649 539 669 517Q762 417 762 308Q762 224 727 150T626 26ZM572 452Q536 512 450 512Q407 512 360 502Q300 489 258 426Q219 367 219 304Q219 240 278 164Q284 155
298 140Q320 121 377 121Q447 121 486 134Q491 136 504 146Q582 203 596 266Q601 289 601 337Q601 404 572 452ZM507 786Q502 782 491 772Q474 761 464 744Q447 725 413 684Q347 678 346 678Q295 678 263 718Q247 738 247 750Q247 770 293 816Q300 822 311 834Q315
843 325 859Q327 862 345 871Q386 870 427 868Q474 863 499 835Q519 831 526 820Q525 801 507 786Z" />
<glyph unicode="&#xd4;" glyph-name="Ocircumflex" horiz-adv-x="814" d="M626 26Q588 -3 570 -9Q553 -11 518 -16Q437 -28 386 -28Q383 -27 374 -25L361 -22Q262 1 209 40Q201 46 170 75Q125 117 105 146Q78 183 64 233Q47 293 47 335Q47 393 65 436Q72 447 83
470Q84 474 87 482Q94 504 110 527Q158 597 285 646Q329 663 347 663Q503 663 581 602Q581 602 610 575Q649 539 669 517Q762 417 762 308Q762 224 727 150T626 26ZM572 452Q536 512 450 512Q407 512 360 502Q300 489 258 426Q219 367 219 304Q219 240 278 164Q284
155 298 140Q320 121 377 121Q447 121 486 134Q491 136 504 146Q582 203 596 266Q601 289 601 337Q601 404 572 452Z" />
<glyph unicode="&#xd6;" glyph-name="Odieresis" horiz-adv-x="814" d="M626 26Q588 -3 570 -9Q553 -11 518 -16Q437 -28 386 -28Q383 -27 374 -25L361 -22Q262 1 209 40Q201 46 170 75Q125 117 105 146Q78 183 64 233Q47 293 47 335Q47 393 65 436Q72 447 83
470Q84 474 87 482Q94 504 110 527Q158 597 285 646Q329 663 347 663Q503 663 581 602Q581 602 610 575Q649 539 669 517Q762 417 762 308Q762 224 727 150T626 26ZM572 452Q536 512 450 512Q407 512 360 502Q300 489 258 426Q219 367 219 304Q219 240 278 164Q284
155 298 140Q320 121 377 121Q447 121 486 134Q491 136 504 146Q582 203 596 266Q601 289 601 337Q601 404 572 452ZM610 655Q599 649 581 649Q559 649 551 647Q540 654 519 670Q450 723 450 766Q450 780 454 791Q471 810 502 833Q509 835 524 835Q559 835 593
814T646 761Q655 746 655 723Q655 677 610 655ZM240 655Q229 649 211 649Q189 649 181 647Q170 654 149 670Q80 723 80 766Q80 780 84 791Q101 810 132 833Q139 835 154 835Q189 835 223 814T276 761Q285 746 285 723Q285 677 240 655Z" />
<glyph unicode="&#xd9;" glyph-name="Ugrave" horiz-adv-x="721" d="M664 296Q664 261 665 248Q668 210 668 220Q668 125 595 31Q513 -19 392 -19Q296 -19 224 10Q211 15 156 54Q130 72 118 87Q84 129 69 190Q60 228 53 304Q47 369 47 367V612Q47 617 48 620Q49
635 50 637Q53 645 63 648Q70 650 104 650Q158 650 187 602Q190 598 209 572Q208 540 208 477Q208 295 219 169Q252 140 336 132Q366 129 364 129Q416 129 446 145T496 206Q499 213 503 225Q517 287 517 391Q517 390 505 636Q530 647 561 647Q577 647 592 644Q612
632 633 619T665 590Q671 545 671 499Q671 465 668 397T664 296ZM200 869Q201 870 206 871Q217 872 240 872Q334 872 368 839Q375 831 388 814Q428 764 429 763Q451 732 457 703Q429 688 366 688Q371 688 341 694Q292 711 241 761Q226 776 159 853Q160 864 176
866Q188 868 200 869Z" />
<glyph unicode="&#xda;" glyph-name="Uacute" horiz-adv-x="721" d="M664 296Q664 261 665 248Q668 210 668 220Q668 125 595 31Q513 -19 392 -19Q296 -19 224 10Q211 15 156 54Q130 72 118 87Q84 129 69 190Q60 228 53 304Q47 369 47 367V612Q47 617 48 620Q49
635 50 637Q53 645 63 648Q70 650 104 650Q158 650 187 602Q190 598 209 572Q208 540 208 477Q208 295 219 169Q252 140 336 132Q366 129 364 129Q416 129 446 145T496 206Q499 213 503 225Q517 287 517 391Q517 390 505 636Q530 647 561 647Q577 647 592 644Q612
632 633 619T665 590Q671 545 671 499Q671 465 668 397T664 296ZM477 786Q472 782 461 772Q444 761 434 744Q417 725 383 684Q317 678 316 678Q265 678 233 718Q217 738 217 750Q217 770 263 816Q270 822 281 834Q285 843 295 859Q297 862 315 871Q356 870 397
868Q444 863 469 835Q489 831 496 820Q495 801 477 786Z" />
<glyph unicode="&#xdb;" glyph-name="Ucircumflex" horiz-adv-x="721" d="M664 296Q664 261 665 248Q668 210 668 220Q668 125 595 31Q513 -19 392 -19Q296 -19 224 10Q211 15 156 54Q130 72 118 87Q84 129 69 190Q60 228 53 304Q47 369 47 367V612Q47 617 48
620Q49 635 50 637Q53 645 63 648Q70 650 104 650Q158 650 187 602Q190 598 209 572Q208 540 208 477Q208 295 219 169Q252 140 336 132Q366 129 364 129Q416 129 446 145T496 206Q499 213 503 225Q517 287 517 391Q517 390 505 636Q530 647 561 647Q577 647 592
644Q612 632 633 619T665 590Q671 545 671 499Q671 465 668 397T664 296Z" />
<glyph unicode="&#xdc;" glyph-name="Udieresis" horiz-adv-x="721" d="M664 296Q664 261 665 248Q668 210 668 220Q668 125 595 31Q513 -19 392 -19Q296 -19 224 10Q211 15 156 54Q130 72 118 87Q84 129 69 190Q60 228 53 304Q47 369 47 367V612Q47 617 48 620Q49
635 50 637Q53 645 63 648Q70 650 104 650Q158 650 187 602Q190 598 209 572Q208 540 208 477Q208 295 219 169Q252 140 336 132Q366 129 364 129Q416 129 446 145T496 206Q499 213 503 225Q517 287 517 391Q517 390 505 636Q530 647 561 647Q577 647 592 644Q612
632 633 619T665 590Q671 545 671 499Q671 465 668 397T664 296ZM847 665Q836 659 818 659Q796 659 788 657Q777 664 756 680Q687 733 687 776Q687 790 691 801Q708 820 739 843Q746 845 761 845Q796 845 830 824T883 771Q892 756 892 733Q892 687 847 665ZM477
665Q466 659 448 659Q426 659 418 657Q407 664 386 680Q317 733 317 776Q317 790 321 801Q338 820 369 843Q376 845 391 845Q426 845 460 824T513 771Q522 756 522 733Q522 687 477 665Z" />
<glyph unicode="&#xdd;" glyph-name="Yacute" horiz-adv-x="1000" />
<glyph unicode="&#xe4;" glyph-name="adieresis" horiz-adv-x="686" d="M713 0Q705 2 689 2Q678 2 656 0T623 -2Q577 -2 554 35Q541 56 517 113Q496 163 476 188H273Q253 171 232 132Q215 100 199 68Q155 -13 99 -13Q63 -13 40 4Q22 18 1 52Q36 144 110 280Q208
460 229 503Q248 539 266 576Q288 618 297 651Q317 657 337 657Q368 657 382 653Q392 650 404 637T423 621T448 609Q470 596 487 563Q500 534 513 506Q517 498 530 476Q576 399 649 208Q673 151 718 36Q721 28 721 18Q721 7 713 0ZM374 413Q340 372 340 348Q346
347 365 343Q380 340 390 340Q396 340 406 342Q405 357 391 380T374 413ZM836 655Q825 649 807 649Q785 649 777 647Q766 654 745 670Q676 723 676 766Q676 780 680 791Q697 810 728 833Q735 835 750 835Q785 835 819 814T872 761Q881 746 881 723Q881 677 836
655ZM466 655Q455 649 437 649Q415 649 407 647Q396 654 375 670Q306 723 306 766Q306 780 310 791Q327 810 358 833Q365 835 380 835Q415 835 449 814T502 761Q511 746 511 723Q511 677 466 655Z" />
<glyph unicode="&#xe5;" glyph-name="aring" horiz-adv-x="1000" />
<glyph unicode="&#xe6;" glyph-name="ae" horiz-adv-x="1000" />
<glyph unicode="&#xe7;" glyph-name="ccedilla" horiz-adv-x="1000" />
<glyph unicode="&#xe8;" glyph-name="egrave" horiz-adv-x="699" d="M638 8Q618 -2 587 -2Q575 -2 551 0T514 2Q511 2 504 1T492 0Q478 0 451 2T410 4Q374 4 302 1T194 -3Q155 -3 114 0Q92 16 52 52Q50 98 50 120Q50 165 54 253T58 386Q58 493 54 555Q49 633 49
620Q49 627 54 657Q313 648 396 648Q501 648 576 653Q584 650 597 637T622 621V518Q550 510 433 510Q407 510 353 511Q300 511 273 511Q265 511 248 511Q231 510 222 510Q211 483 211 462Q211 445 219 431Q224 431 294 427Q338 425 367 417Q373 402 389 392T421
371L423 277L409 266Q401 267 384 267Q366 267 330 266T274 264Q240 264 224 266L216 258Q217 253 217 242Q217 233 216 216T214 189Q214 168 222 155H249Q290 155 371 151T493 146Q534 146 555 148Q587 151 589 151Q610 151 649 87Q649 74 644 48T638 8ZM180 869Q181
870 186 871Q197 872 220 872Q314 872 348 839Q355 831 368 814Q408 764 409 763Q431 732 437 703Q409 688 346 688Q351 688 321 694Q272 711 221 761Q206 776 139 853Q140 864 156 866Q168 868 180 869Z" />
<glyph unicode="&#xe9;" glyph-name="eacute" horiz-adv-x="699" d="M638 8Q618 -2 587 -2Q575 -2 551 0T514 2Q511 2 504 1T492 0Q478 0 451 2T410 4Q374 4 302 1T194 -3Q155 -3 114 0Q92 16 52 52Q50 98 50 120Q50 165 54 253T58 386Q58 493 54 555Q49 633 49
620Q49 627 54 657Q313 648 396 648Q501 648 576 653Q584 650 597 637T622 621V518Q550 510 433 510Q407 510 353 511Q300 511 273 511Q265 511 248 511Q231 510 222 510Q211 483 211 462Q211 445 219 431Q224 431 294 427Q338 425 367 417Q373 402 389 392T421
371L423 277L409 266Q401 267 384 267Q366 267 330 266T274 264Q240 264 224 266L216 258Q217 253 217 242Q217 233 216 216T214 189Q214 168 222 155H249Q290 155 371 151T493 146Q534 146 555 148Q587 151 589 151Q610 151 649 87Q649 74 644 48T638 8ZM477 786Q472
782 461 772Q444 761 434 744Q417 725 383 684Q317 678 316 678Q265 678 233 718Q217 738 217 750Q217 770 263 816Q270 822 281 834Q285 843 295 859Q297 862 315 871Q356 870 397 868Q444 863 469 835Q489 831 496 820Q495 801 477 786Z" />
<glyph unicode="&#xee;" glyph-name="icircumflex" horiz-adv-x="1000" />
<glyph unicode="&#xef;" glyph-name="idieresis" horiz-adv-x="1000" />
<glyph unicode="&#xf1;" glyph-name="ntilde" horiz-adv-x="1000" />
<glyph unicode="&#xf2;" glyph-name="ograve" horiz-adv-x="814" d="M626 26Q588 -3 570 -9Q553 -11 518 -16Q437 -28 386 -28Q383 -27 374 -25L361 -22Q262 1 209 40Q201 46 170 75Q125 117 105 146Q78 183 64 233Q47 293 47 335Q47 393 65 436Q72 447 83 470Q84
474 87 482Q94 504 110 527Q158 597 285 646Q329 663 347 663Q503 663 581 602Q581 602 610 575Q649 539 669 517Q762 417 762 308Q762 224 727 150T626 26ZM572 452Q536 512 450 512Q407 512 360 502Q300 489 258 426Q219 367 219 304Q219 240 278 164Q284 155
298 140Q320 121 377 121Q447 121 486 134Q491 136 504 146Q582 203 596 266Q601 289 601 337Q601 404 572 452ZM240 869Q241 870 246 871Q257 872 280 872Q374 872 408 839Q415 831 428 814Q468 764 469 763Q491 732 497 703Q469 688 406 688Q411 688 381 694Q332
711 281 761Q266 776 199 853Q200 864 216 866Q228 868 240 869Z" />
<glyph unicode="&#xf3;" glyph-name="oacute" horiz-adv-x="814" d="M626 26Q588 -3 570 -9Q553 -11 518 -16Q437 -28 386 -28Q383 -27 374 -25L361 -22Q262 1 209 40Q201 46 170 75Q125 117 105 146Q78 183 64 233Q47 293 47 335Q47 393 65 436Q72 447 83 470Q84
474 87 482Q94 504 110 527Q158 597 285 646Q329 663 347 663Q503 663 581 602Q581 602 610 575Q649 539 669 517Q762 417 762 308Q762 224 727 150T626 26ZM572 452Q536 512 450 512Q407 512 360 502Q300 489 258 426Q219 367 219 304Q219 240 278 164Q284 155
298 140Q320 121 377 121Q447 121 486 134Q491 136 504 146Q582 203 596 266Q601 289 601 337Q601 404 572 452ZM507 786Q502 782 491 772Q474 761 464 744Q447 725 413 684Q347 678 346 678Q295 678 263 718Q247 738 247 750Q247 770 293 816Q300 822 311 834Q315
843 325 859Q327 862 345 871Q386 870 427 868Q474 863 499 835Q519 831 526 820Q525 801 507 786Z" />
<glyph unicode="&#xf4;" glyph-name="ocircumflex" horiz-adv-x="1000" />
<glyph unicode="&#xf6;" glyph-name="odieresis" horiz-adv-x="814" d="M626 26Q588 -3 570 -9Q553 -11 518 -16Q437 -28 386 -28Q383 -27 374 -25L361 -22Q262 1 209 40Q201 46 170 75Q125 117 105 146Q78 183 64 233Q47 293 47 335Q47 393 65 436Q72 447 83
470Q84 474 87 482Q94 504 110 527Q158 597 285 646Q329 663 347 663Q503 663 581 602Q581 602 610 575Q649 539 669 517Q762 417 762 308Q762 224 727 150T626 26ZM572 452Q536 512 450 512Q407 512 360 502Q300 489 258 426Q219 367 219 304Q219 240 278 164Q284
155 298 140Q320 121 377 121Q447 121 486 134Q491 136 504 146Q582 203 596 266Q601 289 601 337Q601 404 572 452ZM600 655Q589 649 571 649Q549 649 541 647Q530 654 509 670Q440 723 440 766Q440 780 444 791Q461 810 492 833Q499 835 514 835Q549 835 583
814T636 761Q645 746 645 723Q645 677 600 655ZM230 655Q219 649 201 649Q179 649 171 647Q160 654 139 670Q70 723 70 766Q70 780 74 791Q91 810 122 833Q129 835 144 835Q179 835 213 814T266 761Q275 746 275 723Q275 677 230 655Z" />
<glyph unicode="&#xf9;" glyph-name="ugrave" horiz-adv-x="721" d="M664 296Q664 261 665 248Q668 210 668 220Q668 125 595 31Q513 -19 392 -19Q296 -19 224 10Q211 15 156 54Q130 72 118 87Q84 129 69 190Q60 228 53 304Q47 369 47 367V612Q47 617 48 620Q49
635 50 637Q53 645 63 648Q70 650 104 650Q158 650 187 602Q190 598 209 572Q208 540 208 477Q208 295 219 169Q252 140 336 132Q366 129 364 129Q416 129 446 145T496 206Q499 213 503 225Q517 287 517 391Q517 390 505 636Q530 647 561 647Q577 647 592 644Q612
632 633 619T665 590Q671 545 671 499Q671 465 668 397T664 296ZM200 869Q201 870 206 871Q217 872 240 872Q334 872 368 839Q375 831 388 814Q428 764 429 763Q451 732 457 703Q429 688 366 688Q371 688 341 694Q292 711 241 761Q226 776 159 853Q160 864 176
866Q188 868 200 869Z" />
<glyph unicode="&#xfa;" glyph-name="uacute" horiz-adv-x="721" d="M664 296Q664 261 665 248Q668 210 668 220Q668 125 595 31Q513 -19 392 -19Q296 -19 224 10Q211 15 156 54Q130 72 118 87Q84 129 69 190Q60 228 53 304Q47 369 47 367V612Q47 617 48 620Q49
635 50 637Q53 645 63 648Q70 650 104 650Q158 650 187 602Q190 598 209 572Q208 540 208 477Q208 295 219 169Q252 140 336 132Q366 129 364 129Q416 129 446 145T496 206Q499 213 503 225Q517 287 517 391Q517 390 505 636Q530 647 561 647Q577 647 592 644Q612
632 633 619T665 590Q671 545 671 499Q671 465 668 397T664 296ZM477 786Q472 782 461 772Q444 761 434 744Q417 725 383 684Q317 678 316 678Q265 678 233 718Q217 738 217 750Q217 770 263 816Q270 822 281 834Q285 843 295 859Q297 862 315 871Q356 870 397
868Q444 863 469 835Q489 831 496 820Q495 801 477 786Z" />
<glyph unicode="&#xfc;" glyph-name="udieresis" horiz-adv-x="721" d="M664 296Q664 261 665 248Q668 210 668 220Q668 125 595 31Q513 -19 392 -19Q296 -19 224 10Q211 15 156 54Q130 72 118 87Q84 129 69 190Q60 228 53 304Q47 369 47 367V612Q47 617 48 620Q49
635 50 637Q53 645 63 648Q70 650 104 650Q158 650 187 602Q190 598 209 572Q208 540 208 477Q208 295 219 169Q252 140 336 132Q366 129 364 129Q416 129 446 145T496 206Q499 213 503 225Q517 287 517 391Q517 390 505 636Q530 647 561 647Q577 647 592 644Q612
632 633 619T665 590Q671 545 671 499Q671 465 668 397T664 296ZM847 665Q836 659 818 659Q796 659 788 657Q777 664 756 680Q687 733 687 776Q687 790 691 801Q708 820 739 843Q746 845 761 845Q796 845 830 824T883 771Q892 756 892 733Q892 687 847 665ZM477
665Q466 659 448 659Q426 659 418 657Q407 664 386 680Q317 733 317 776Q317 790 321 801Q338 820 369 843Q376 845 391 845Q426 845 460 824T513 771Q522 756 522 733Q522 687 477 665Z" />
</font>
</defs>
</svg>
